HIERARCHY
ROOT Hips
{
	OFFSET 0.000000 0.000000 0.000000 
	CHANNELS 6 Xposition Yposition Zposition Zrotation Yrotation Xrotation
	JOINT LeftUpLeg
	{
		OFFSET 1.363060 -1.794630 0.839290 
		CHANNELS 3 Zrotation Yrotation Xrotation
		JOINT LeftLeg
		{
			OFFSET 2.448110 -6.726130 0.000000 
			CHANNELS 3 Zrotation Yrotation Xrotation
			JOINT LeftFoot
			{
				OFFSET 2.562200 -7.039590 0.000000 
				CHANNELS 3 Zrotation Yrotation Xrotation
				JOINT LeftToeBase
				{
					OFFSET 0.157640 -0.433110 2.322550 
					CHANNELS 3 Zrotation Yrotation Xrotation
					End Site
					{
						OFFSET 0.000000 0.000000 0.000000 
					}
				}
			}
		}
	}
	JOINT RightUpLeg
	{
		OFFSET -1.305520 -1.794630 0.839290 
		CHANNELS 3 Zrotation Yrotation Xrotation
		JOINT RightLeg
		{
			OFFSET -2.542530 -6.985550 0.000000 
			CHANNELS 3 Zrotation Yrotation Xrotation
			JOINT RightFoot
			{
				OFFSET -2.568260 -7.056230 0.000000 
				CHANNELS 3 Zrotation Yrotation Xrotation
				JOINT RightToeBase
				{
					OFFSET -0.164730 -0.452590 2.363150 
					CHANNELS 3 Zrotation Yrotation Xrotation
					End Site
					{
						OFFSET 0.000000 0.000000 0.000000 
					}
				}
			}
		}
	}
	JOINT Spine
	{
		OFFSET 0.028270 2.035590 -0.193380 
		CHANNELS 3 Zrotation Yrotation Xrotation
		JOINT Spine1
		{
			OFFSET 0.056720 2.048850 -0.042750 
			CHANNELS 3 Zrotation Yrotation Xrotation
			JOINT Neck1
			{
				OFFSET -0.054170 1.746240 0.172020 
				CHANNELS 3 Zrotation Yrotation Xrotation
				JOINT Head
				{
					OFFSET 0.104070 1.761360 -0.123970 
					CHANNELS 3 Zrotation Yrotation Xrotation
					End Site
					{
						OFFSET 0.000000 0.000000 0.000000 
					}
				}
			}
			JOINT LeftArm
			{
				OFFSET 3.362410 1.200890 -0.311210 
				CHANNELS 3 Zrotation Yrotation Xrotation
				JOINT LeftForeArm
				{
					OFFSET 4.983000 -0.000000 -0.000000 
					CHANNELS 3 Zrotation Yrotation Xrotation
					JOINT LeftHand
					{
						OFFSET 3.483560 -0.000000 -0.000000 
						CHANNELS 3 Zrotation Yrotation Xrotation
						JOINT LeftHandIndex1
						{
							OFFSET 0.715260 -0.000000 -0.000000 
							CHANNELS 3 Zrotation Yrotation Xrotation
							End Site
							{
								OFFSET 0.000000 0.000000 0.000000 
							}
						}
					}
				}
			}
			JOINT RightArm
			{
				OFFSET -3.136600 1.374050 -0.404650 
				CHANNELS 3 Zrotation Yrotation Xrotation
				JOINT RightForeArm
				{
					OFFSET -5.241900 -0.000000 -0.000000 
					CHANNELS 3 Zrotation Yrotation Xrotation
					JOINT RightHand
					{
						OFFSET -3.444170 -0.000000 -0.000000 
						CHANNELS 3 Zrotation Yrotation Xrotation
						JOINT RightHandIndex1
						{
							OFFSET -0.622530 -0.000000 -0.000000 
							CHANNELS 3 Zrotation Yrotation Xrotation
							End Site
							{
								OFFSET 0.000000 0.000000 0.000000 
							}
						}
					}
				}
			}
		}
	}
}
MOTION
Frames: 18
Frame Time: 0.041667
-6.179101 17.660834 37.447546 -134.003513 -81.513904 147.175983 -9.348303 3.441128 -16.920907 -1.938485 6.230275 14.642597 2.403091 -4.304234 7.462557 0.940000 -6.175200 -17.293700 27.286376 -12.589300 -9.265404 1.657283 -1.149870 0.806502 -3.749800 18.189881 11.694974 -0.234200 3.114400 -8.597400 1.364444 2.502718 -3.354330 1.859173 1.250325 -3.037597 14.964205 -25.340378 3.076483 24.216100 -12.665000 3.841900 -73.976501 18.240862 54.024742 127.023654 -50.384696 -96.515141 -0.684121 -1.408274 -35.702836 -7.125000 0.000000 0.000000 66.440367 -14.998631 60.280987 -127.343191 52.654096 -94.279020 -0.193660 2.119792 7.739115 7.125000 0.000000 0.000000 
-6.172609 17.660185 37.447654 -133.044435 -81.216709 146.300250 -9.021521 3.364246 -17.033533 -1.900209 6.296871 14.853577 2.344021 -4.044390 7.390003 0.947200 -6.198400 -17.361200 27.632071 -12.364848 -9.306090 1.668441 -1.164029 0.790233 -3.743973 18.176694 11.664469 -0.243000 3.172300 -8.758900 1.369841 2.643927 -3.351195 1.747483 1.303916 -3.009804 15.008738 -25.497310 2.999285 24.249600 -12.719500 3.905100 -73.975291 18.104387 54.111790 126.981736 -50.397519 -96.484220 -0.692601 -1.398818 -35.572052 -7.125000 0.000000 0.000000 66.426060 -14.945224 60.135229 -127.331793 52.656083 -94.270600 -0.201335 2.116895 7.715990 7.125000 0.000000 0.000000 
-6.172501 17.661050 37.449169 -133.136967 -81.237014 146.396329 -9.048737 3.339004 -17.052740 -1.898344 6.316299 14.896726 2.339913 -4.035853 7.347172 0.954200 -6.220400 -17.425400 27.595635 -12.372988 -9.320149 1.668277 -1.161139 0.790874 -3.744833 18.171633 11.714759 -0.235600 3.124100 -8.624500 1.356885 2.605799 -3.361561 1.683759 1.276463 -3.051348 14.977786 -25.397915 3.062063 24.203700 -12.694000 3.869100 -73.944075 18.172865 53.988427 126.979028 -50.402490 -96.487961 -0.701132 -1.394452 -35.451550 -7.125000 0.000000 0.000000 66.585433 -14.989913 60.244398 -127.297262 52.668311 -94.234363 -0.195768 2.115991 7.762450 7.125000 0.000000 0.000000 
-6.172609 17.661158 37.447654 -133.021055 -81.225411 146.269509 -9.021516 3.298056 -17.054379 -1.891538 6.340853 14.960806 2.330883 -4.004060 7.313358 0.946900 -6.197400 -17.358200 27.620687 -12.382695 -9.306286 1.667860 -1.162584 0.791359 -3.744171 18.177830 11.676993 -0.240100 3.153400 -8.706100 1.323995 2.729106 -3.350004 1.616559 1.328998 -3.036380 15.025785 -25.575090 2.969068 24.191300 -12.758900 3.850200 -73.765437 18.081367 54.256005 126.903497 -50.430384 -96.425818 -0.706918 -1.391550 -35.070867 -7.125000 0.000000 0.000000 66.731275 -15.035446 59.956669 -127.313881 52.669921 -94.249362 -0.198640 2.108428 7.724132 7.125000 0.000000 0.000000 
-6.171960 17.661375 37.447438 -132.967004 -81.202744 146.221532 -8.998278 3.279927 -17.047948 -1.891720 6.337486 14.952066 2.321843 -3.965443 7.320449 0.947200 -6.198400 -17.361200 27.642551 -12.368012 -9.308611 1.668566 -1.163369 0.790373 -3.743823 18.178196 11.674266 -0.240900 3.158900 -8.721400 1.297604 2.796936 -3.347450 1.534681 1.351968 -3.041181 15.045673 -25.643522 2.935439 24.166700 -12.787700 3.828000 -73.636534 18.047060 54.358370 126.862165 -50.446858 -96.395003 -0.715421 -1.387099 -34.810403 -7.125000 0.000000 0.000000 66.879781 -15.067508 59.830594 -127.308060 52.675418 -94.241594 -0.199275 2.103521 7.719791 7.125000 0.000000 0.000000 
-6.171852 17.661591 37.447330 -133.002499 -81.207147 146.257537 -9.006735 3.275747 -17.048374 -1.892533 6.338511 14.951576 2.320785 -3.961992 7.319991 0.947700 -6.199800 -17.365200 27.632559 -12.371692 -9.310724 1.668401 -1.162719 0.790709 -3.744124 18.179929 11.680049 -0.240200 3.154300 -8.708800 1.273096 2.847679 -3.344456 1.469078 1.368933 -3.042636 15.060395 -25.695523 2.913212 24.140700 -12.810800 3.808800 -73.524042 18.018526 54.439897 126.822031 -50.463067 -96.365046 -0.724325 -1.382121 -34.527895 -7.125000 0.000000 0.000000 67.008500 -15.092602 59.727182 -127.302424 52.680501 -94.233876 -0.199950 2.098984 7.708800 7.125000 0.000000 0.000000 
-6.171744 17.661591 37.447221 -133.026019 -81.211698 146.281750 -9.014246 3.276269 -17.050198 -1.893538 6.337774 14.947514 2.320693 -3.961770 7.322879 0.950200 -6.207900 -17.388900 27.625021 -12.374760 -9.314235 1.668300 -1.162251 0.790915 -3.744458 18.182772 11.686393 -0.239400 3.148700 -8.693100 1.256504 2.881992 -3.341225 1.426216 1.380916 -3.038385 15.070579 -25.733590 2.901985 24.120300 -12.828900 3.802200 -73.451216 17.988409 54.488071 126.780312 -50.480160 -96.333532 -0.733341 -1.375977 -34.225225 -7.125000 0.000000 0.000000 67.089444 -15.100093 59.655018 -127.298546 52.683660 -94.228439 -0.201108 2.095127 7.686625 7.125000 0.000000 0.000000 
-6.171527 17.661591 37.447330 -133.043847 -81.220578 146.304063 -9.024397 3.278078 -17.053920 -1.894943 6.336105 14.940925 2.321618 -3.965491 7.327144 0.954900 -6.222600 -17.431600 27.614968 -12.379536 -9.322223 1.668196 -1.161665 0.791094 -3.744887 18.185068 11.698520 -0.237600 3.137000 -8.660400 1.248444 2.891863 -3.339041 1.404616 1.383767 -3.032571 15.072346 -25.744764 2.909167 24.106400 -12.838300 3.806500 -73.424847 17.968461 54.487081 126.743136 -50.496081 -96.305722 -0.742491 -1.368878 -33.921359 -7.125000 0.000000 0.000000 67.122916 -15.095076 59.632536 -127.295009 52.685519 -94.223484 -0.202282 2.092414 7.658170 7.125000 0.000000 0.000000 
-6.171203 17.661591 37.447438 -133.018042 -81.225294 146.283281 -9.024909 3.274075 -17.058659 -1.895486 6.335451 14.938723 2.321406 -3.964087 7.331884 0.958300 -6.233500 -17.463500 27.615180 -12.382037 -9.331591 1.668247 -1.161672 0.790951 -3.745011 18.186173 11.705587 -0.236500 3.129900 -8.640500 1.251433 2.880760 -3.337341 1.412537 1.380094 -3.023465 15.066993 -25.736030 2.931809 24.100500 -12.840900 3.825900 -73.456166 17.950141 54.445364 126.704451 -50.512767 -96.276098 -0.751311 -1.360466 -33.606276 -7.125000 0.000000 0.000000 67.103714 -15.075213 59.648607 -127.290531 52.686568 -94.218819 -0.203586 2.090419 7.620823 7.125000 0.000000 0.000000 
-6.170770 17.661591 37.447654 -132.965495 -81.228557 146.237416 -9.021475 3.270638 -17.065970 -1.895509 6.336008 14.940452 2.322484 -3.966909 7.337245 0.960200 -6.239500 -17.480900 27.619861 -12.384974 -9.341541 1.668298 -1.161982 0.790734 -3.745123 18.185115 11.708077 -0.235800 3.125200 -8.627600 1.258132 2.862109 -3.336154 1.427449 1.373464 -3.014492 15.057390 -25.713423 2.961296 24.098400 -12.838100 3.847700 -73.504781 17.935837 54.394256 126.667325 -50.528976 -96.247410 -0.759461 -1.352104 -33.279633 -7.125000 0.000000 0.000000 67.062971 -15.053352 59.679578 -127.288772 52.686331 -94.216573 -0.204815 2.089173 7.583059 7.125000 0.000000 0.000000 
-6.170229 17.661591 37.447762 -132.899876 -81.226074 146.176777 -9.014773 3.270904 -17.076620 -1.894828 6.337622 14.945961 2.324839 -3.974726 7.342598 0.960000 -6.238800 -17.478900 27.629057 -12.386133 -9.350325 1.668398 -1.162363 0.790485 -3.744948 18.181838 11.704466 -0.236400 3.129000 -8.638000 1.244088 2.853858 -3.340503 1.342860 1.359717 -3.027128 15.050956 -25.671465 3.002739 24.100300 -12.835500 3.869200 -73.470120 17.947873 54.338259 126.641127 -50.541954 -96.231349 -0.768301 -1.344201 -32.968515 -7.125000 0.000000 0.000000 67.112170 -15.045900 59.721489 -127.283598 52.685016 -94.205474 -0.205445 2.086498 7.562946 7.125000 0.000000 0.000000 
-6.169796 17.661699 37.448087 -132.843423 -81.225428 146.124300 -9.011757 3.280012 -17.091832 -1.893909 6.339798 14.953223 2.330749 -3.996165 7.349673 0.956700 -6.228400 -17.448500 27.636216 -12.388034 -9.359145 1.668413 -1.162772 0.790320 -3.744784 18.177185 11.696545 -0.238000 3.140000 -8.668700 1.232635 2.842814 -3.344885 1.270946 1.346107 -3.039988 15.042539 -25.626889 3.045981 24.100400 -12.831400 3.890900 -73.442676 17.962109 54.282874 126.614280 -50.555086 -96.214279 -0.776808 -1.336626 -32.652192 -7.125000 0.000000 0.000000 67.156856 -15.038908 59.764341 -127.276296 52.684615 -94.193423 -0.205817 2.083980 7.549586 7.125000 0.000000 0.000000 
-6.169255 17.661808 37.448411 -132.790989 -81.225401 146.074925 -9.010829 3.290756 -17.107031 -1.892975 6.342078 14.960760 2.336471 -4.017720 7.353864 0.954100 -6.220200 -17.424700 27.641588 -12.390811 -9.366941 1.668379 -1.163087 0.790245 -3.744684 18.173277 11.689313 -0.239900 3.151900 -8.702000 1.221539 2.832213 -3.349233 1.202678 1.333025 -3.054050 15.033807 -25.585950 3.087523 24.097200 -12.828500 3.910300 -73.411964 17.976962 54.232236 126.586368 -50.568590 -96.196140 -0.785283 -1.329346 -32.328800 -7.125000 0.000000 0.000000 67.204320 -15.034550 59.804452 -127.267436 52.685183 -94.180369 -0.206046 2.081442 7.546731 7.125000 0.000000 0.000000 
-6.168714 17.661916 37.448952 -132.755616 -81.227587 146.044194 -9.013362 3.305269 -17.124451 -1.892036 6.344585 14.968421 2.342646 -4.041042 7.354908 0.953300 -6.217600 -17.417200 27.644482 -12.392412 -9.376119 1.668385 -1.163371 0.790102 -3.744679 18.170925 11.684389 -0.241600 3.163200 -8.733400 1.220989 2.814157 -3.351471 1.181288 1.322251 -3.058322 15.021803 -25.554057 3.127105 24.093200 -12.826500 3.936400 -73.426104 17.980670 54.171228 126.557594 -50.582119 -96.175578 -0.794126 -1.321475 -32.007582 -7.125000 0.000000 0.000000 67.207966 -15.020126 59.845728 -127.256469 52.687079 -94.168778 -0.206244 2.079709 7.547714 7.125000 0.000000 0.000000 
-6.168173 17.662024 37.449602 -132.718536 -81.228304 146.011437 -9.014345 3.317235 -17.140259 -1.891078 6.347056 14.976202 2.346792 -4.057024 7.352655 0.954300 -6.220700 -17.426200 27.648349 -12.392307 -9.384762 1.668496 -1.163570 0.789855 -3.744659 18.168938 11.684637 -0.242400 3.168100 -8.747000 1.225385 2.798028 -3.354897 1.185425 1.315241 -3.070474 15.009153 -25.535333 3.162245 24.087400 -12.829000 3.963700 -73.458301 17.985304 54.117654 126.528946 -50.594998 -96.153796 -0.803329 -1.313361 -31.687945 -7.125000 0.000000 0.000000 67.195358 -15.013679 59.876578 -127.244755 52.690235 -94.158692 -0.206130 2.078504 7.556595 7.125000 0.000000 0.000000 
-6.167524 17.662132 37.450467 -132.673727 -81.224962 145.971492 -9.009504 3.319810 -17.152047 -1.889797 6.349968 14.984872 2.347286 -4.058763 7.347077 0.957200 -6.230000 -17.453300 27.656176 -12.388389 -9.393485 1.668797 -1.163864 0.789370 -3.744655 18.168077 11.687356 -0.242700 3.170100 -8.752800 1.234093 2.785127 -3.359633 1.210998 1.312015 -3.090395 14.994759 -25.525461 3.193367 24.078300 -12.834100 3.989000 -73.501651 17.993015 54.072907 126.503083 -50.606419 -96.133090 -0.812869 -1.305369 -31.375784 -7.125000 0.000000 0.000000 67.168289 -15.016247 59.898599 -127.235676 52.693397 -94.151945 -0.206203 2.077869 7.571739 7.125000 0.000000 0.000000 
-6.166983 17.662240 37.451116 -132.632634 -81.218073 145.934791 -9.000214 3.313772 -17.159329 -1.888374 6.353398 14.994773 2.344637 -4.048077 7.339716 0.959200 -6.236200 -17.471200 27.666554 -12.381436 -9.400480 1.669212 -1.164255 0.788734 -3.744570 18.166735 11.690545 -0.242600 3.169900 -8.752000 1.243722 2.777486 -3.362274 1.245753 1.312510 -3.102870 14.981940 -25.523913 3.216996 24.066500 -12.840000 4.009200 -73.543143 17.990492 54.037261 126.478046 -50.617176 -96.112343 -0.822939 -1.297205 -31.070580 -7.125000 0.000000 0.000000 67.137321 -15.016833 59.905580 -127.230541 52.695432 -94.150012 -0.205991 2.077834 7.589372 7.125000 0.000000 0.000000 
-6.166334 17.662457 37.451657 -132.581390 -81.207635 145.889821 -8.985128 3.302219 -17.164676 -1.886780 6.356892 15.005183 2.340482 -4.031087 7.333210 0.960500 -6.240400 -17.483400 27.681304 -12.371098 -9.407650 1.669843 -1.164748 0.787797 -3.744499 18.165538 11.701271 -0.241100 3.159700 -8.723700 1.262180 2.765254 -3.361541 1.319383 1.315331 -3.100967 14.964579 -25.517449 3.236021 24.048800 -12.837800 4.020800 -73.613907 17.974506 53.999804 126.450769 -50.628493 -96.088296 -0.832802 -1.288858 -30.750677 -7.125000 0.000000 0.000000 67.069406 -15.008497 59.910332 -127.229369 52.696837 -94.153921 -0.205903 2.079159 7.608365 7.125000 0.000000 0.000000 
